Normalized EMG Linear Envelopes
nRows=140
nColumns=4

endheader
time	 med_gas_r	  soleus_r	 tib_ant_r	
3.0625	  0.002809	  0.014894	  0.001525	
3.125	  0.002814	  0.014789	  0.001461	
3.1875	  0.002819	  0.014824	  0.001406	
3.25	  0.002791	  0.014886	  0.001396	
3.3125	  0.002735	  0.014941	  0.001448	
3.375	  0.002657	  0.014898	  0.001492	
3.4375	  0.002572	  0.014661	  0.001482	
3.5	  0.002524	  0.014232	  0.001447	
3.5625	  0.002509	  0.013739	  0.001446	
3.625	  0.002528	  0.013374	  0.001491	
3.6875	  0.002569	  0.013225	  0.001549	
3.75	  0.002606	  0.013300	  0.001593	
3.8125	  0.002639	  0.013649	  0.001612	
3.875	  0.002661	  0.014197	  0.001631	
3.9375	  0.002683	  0.014595	  0.001644	
4	  0.002661	  0.014502	  0.001623	
4.0625	  0.002595	  0.014257	  0.001561	
4.125	  0.002533	  0.014135	  0.001498	
4.1875	  0.002435	  0.013946	  0.001466	
4.25	  0.002161	  0.013018	  0.001444	
4.3125	  0.001548	  0.011136	  0.001417	
4.375	  0.000480	  0.008512	  0.001366	
4.4375	 -0.000833	  0.006004	  0.001278	
4.5	 -0.001304	  0.006120	  0.001215	
4.5625	  0.001435	  0.013698	  0.001349	
4.625	  0.010973	  0.035444	  0.001989	
4.6875	  0.031074	  0.078243	  0.003495	
4.75	  0.061940	  0.140980	  0.005986	
4.8125	  0.095708	  0.207918	  0.009039	
4.875	  0.127971	  0.280834	  0.012468	
4.9375	  0.159273	  0.357508	  0.016095	
5	  0.186335	  0.411396	  0.018569	
5.0625	  0.201942	  0.417066	  0.018671	
5.125	  0.213257	  0.403446	  0.017544	
5.1875	  0.239062	  0.401946	  0.016510	
5.25	  0.284566	  0.417989	  0.016152	
5.3125	  0.337324	  0.445358	  0.016792	
5.375	  0.378297	  0.474927	  0.018762	
5.4375	  0.406231	  0.501116	  0.021933	
5.5	  0.427344	  0.522704	  0.025801	
5.5625	  0.444106	  0.533150	  0.029696	
5.625	  0.453484	  0.526197	  0.032418	
5.6875	  0.465762	  0.520073	  0.034151	
5.75	  0.489815	  0.526524	  0.036006	
5.8125	  0.511818	  0.540108	  0.038064	
5.875	  0.519535	  0.557206	  0.039629	
5.9375	  0.516252	  0.574075	  0.040978	
6	  0.516171	  0.581621	  0.041605	
6.0625	  0.519907	  0.585382	  0.041198	
6.125	  0.533822	  0.596563	  0.041371	
6.1875	  0.556450	  0.617939	  0.044068	
6.25	  0.582919	  0.646686	  0.049203	
6.3125	  0.611593	  0.674686	  0.055121	
6.375	  0.634176	  0.686893	  0.059873	
6.4375	  0.652596	  0.700729	  0.062832	
6.5	  0.677724	  0.732522	  0.064306	
6.5625	  0.704028	  0.769976	  0.065075	
6.625	  0.727048	  0.796301	  0.066331	
6.6875	  0.734227	  0.804928	  0.066758	
6.75	  0.719381	  0.791294	  0.064798	
6.8125	  0.716622	  0.773763	  0.062907	
6.875	  0.732851	  0.763061	  0.063061	
6.9375	  0.767291	  0.763313	  0.064165	
7	  0.809646	  0.776642	  0.064796	
7.0625	  0.839456	  0.809253	  0.064987	
7.125	  0.848863	  0.848377	  0.065531	
7.1875	  0.837416	  0.877816	  0.066541	
7.25	  0.800361	  0.878789	  0.068672	
7.3125	  0.743909	  0.841511	  0.070994	
7.375	  0.687327	  0.802153	  0.071349	
7.4375	  0.655532	  0.791662	  0.070770	
7.5	  0.664721	  0.798631	  0.070010	
7.5625	  0.695322	  0.794914	  0.067877	
7.625	  0.728937	  0.774261	  0.066216	
7.6875	  0.744744	  0.749651	  0.066731	
7.75	  0.732933	  0.736347	  0.068300	
7.8125	  0.704972	  0.744182	  0.068504	
7.875	  0.677619	  0.765634	  0.066530	
7.9375	  0.665698	  0.799164	  0.063594	
8	  0.675121	  0.822528	  0.061339	
8.0625	  0.695778	  0.811719	  0.060047	
8.125	  0.715697	  0.792824	  0.061615	
8.1875	  0.725450	  0.795824	  0.066466	
8.25	  0.723888	  0.815510	  0.072646	
8.3125	  0.715721	  0.825410	  0.076257	
8.375	  0.713640	  0.808756	  0.076409	
8.4375	  0.722530	  0.783557	  0.074286	
8.5	  0.724274	  0.792076	  0.071670	
8.5625	  0.728740	  0.846271	  0.070237	
8.625	  0.748190	  0.919590	  0.072329	
8.6875	  0.775002	  0.957994	  0.077057	
8.75	  0.793290	  0.948564	  0.081428	
8.8125	  0.797244	  0.907156	  0.081659	
8.875	  0.802984	  0.873109	  0.077715	
8.9375	  0.810011	  0.860813	  0.073649	
9	  0.821170	  0.855785	  0.072792	
9.0625	  0.819258	  0.854904	  0.074619	
9.125	  0.801820	  0.849030	  0.077534	
9.1875	  0.776010	  0.851702	  0.079389	
9.25	  0.758525	  0.869898	  0.081269	
9.3125	  0.745508	  0.882776	  0.080430	
9.375	  0.731079	  0.887405	  0.076565	
9.4375	  0.712604	  0.871536	  0.072915	
9.5	  0.689947	  0.812970	  0.070422	
9.5625	  0.640465	  0.735974	  0.066902	
9.625	  0.557081	  0.648347	  0.061597	
9.6875	  0.442056	  0.531388	  0.057690	
9.75	  0.320488	  0.373005	  0.059170	
9.8125	  0.215760	  0.214732	  0.066266	
9.875	  0.125297	  0.100102	  0.068595	
9.9375	  0.055880	  0.035765	  0.058940	
10	  0.015754	  0.009009	  0.041854	
10.0625	 -0.000939	  0.003271	  0.025468	
10.125	 -0.004306	  0.006230	  0.013966	
10.1875	 -0.002272	  0.010877	  0.007592	
10.25	  0.000720	  0.014504	  0.004660	
10.3125	  0.002896	  0.016661	  0.003589	
10.375	  0.003959	  0.017974	  0.003263	
10.4375	  0.004219	  0.018997	  0.003165	
10.5	  0.004108	  0.019050	  0.003022	
10.5625	  0.003927	  0.017430	  0.002899	
10.625	  0.003829	  0.015360	  0.002765	
10.6875	  0.003901	  0.014049	  0.002500	
10.75	  0.004048	  0.013612	  0.002172	
10.8125	  0.004023	  0.013618	  0.001923	
10.875	  0.003787	  0.013717	  0.001817	
10.9375	  0.003472	  0.013804	  0.001807	
11	  0.003209	  0.013885	  0.001808	
11.0625	  0.003017	  0.014093	  0.001771	
11.125	  0.002895	  0.014364	  0.001718	
11.1875	  0.002784	  0.014540	  0.001677	
11.25	  0.002687	  0.014514	  0.001686	
11.3125	  0.002627	  0.014339	  0.001777	
11.375	  0.002630	  0.014172	  0.001913	
11.4375	  0.002666	  0.014128	  0.002042	
11.5	  0.002692	  0.014261	  0.002112	
11.5625	  0.002759	  0.014651	  0.002103	
11.625	  0.002887	  0.015204	  0.002049	
11.6875	  0.002983	  0.015751	  0.001986	
11.75	  0.002992	  0.016120	  0.001949	
